<svg version="1" xmlns="http://www.w3.org/2000/svg" width="1433.333" height="1433.333" viewBox="0 0 1075.000000 1075.000000"><path d="M588.5 365.1c-17.6 13.7-34.1 27-36.6 29.4-7.5 7.1-7.4 10.6.3 16.8 5 3.9 87.3 60.7 88.1 60.7.3 0 10.3-8.6 22.3-19l21.7-19h17.2l46.9 42 46.8 42h20.6l33.4 30.5 33.3 30.4 40.8.1c22.5 0 40.7-.4 40.5-.9-.3-.8-73.7-67.3-75.6-68.5-.5-.3 1.7 10.1 5 23 3.2 13 5.7 24 5.6 24.4-.2.5-7.7-13.3-16.8-30.6-9-17.3-16.7-31.4-17-31.4-.3 0-3.4 6.5-6.9 14.5-3.6 7.9-6.7 14.3-6.9 14.1-.2-.2 1.1-7.5 2.8-16.1 1.7-8.6 3-15.8 2.8-16-.2-.2-7 3.9-15.2 9.1-8.2 5.2-15 9.3-15.2 9.2-.1-.2 6.3-6.3 14.3-13.6l14.7-13.2h10.1l57.4 48 57.4 48h8.4c4.6 0 8.3-.2 8.3-.5 0-.2-29.4-22.9-65.4-50.5l-65.5-50h-6.8l-6.8.1-16.3 14.5c-9 8-16.5 14.4-16.7 14.2-.2-.1 3-4.3 7.1-9.1l7.4-8.9-13.3-10.2c-7.2-5.6-50.8-39.1-96.9-74.4L640.2 340H620.5l-32 25.1zm129.6 44c75.6 59.6 93.1 73.6 80.4 64.7-2.7-1.9-27.9-19.6-56-39.3-28-19.7-52.6-36.9-54.5-38.3-2.5-1.8-3-2-1.9-.6.9 1 8.9 10.9 17.9 21.9 9 11 17.3 21.1 18.4 22.4 5.7 6.7-8.9-6.8-41.9-38.8-19.8-19.2-36.1-34.5-36.3-34.2-.1.4 2 10.1 4.8 21.5 2.7 11.4 5 21.3 5 21.9 0 .6-6.8-10.7-15.1-25.2l-15.2-26.3-3.6 5.9c-2 3.2-8.2 13.1-13.6 22-5.5 8.9-10.2 16-10.3 15.8-.2-.2 1-4.1 2.8-8.7 1.8-4.6 3.6-9.3 4.1-10.6 1.3-3.3.5-2.7-15.6 11.7-7.7 6.9-15.2 13.5-16.5 14.6-2.3 1.8-2.2 1.7.5-2 1.6-2.2 6.7-9 11.4-15 4.7-6.1 9.8-12.7 11.4-14.7 2.5-3.4.7-2.5-17 8.5-10.9 6.8-20.5 12.7-21.3 13.2-3.8 2.1 3.4-3.9 34.4-28.4l32.9-26.1h13.4l81.4 64.1zM451.8 435.2c-25.5 21.6-52.8 44.7-60.8 51.5L376.5 499h-13.2l-49.4 38.6c-27.2 21.3-50.1 39.3-50.9 40-1.2 1.2 1.2 1.4 16.5 1.4h18l37-33c36.9-32.8 37-33 41.5-33h4.5l52.5-50.3c28.9-27.6 51.6-49.1 50.5-47.6-1.1 1.4-36 38.4-77.5 82.3-41.5 44-75.6 80.3-75.8 80.7-.2.5 8.8.9 20 .8h20.3l64.5-88.2 64.5-88.2 6-.3 6-.2 39.9 29.5c22 16.2 40.5 30 41 30.6 1.6 1.6-3.6-1.6-35.3-22.5-15.6-10.3-28.5-18.6-28.6-18.4-.2.2 8.3 14.5 18.9 31.8 20.5 33.8 21.5 35.4 19.4 32.9-.7-.9-13.2-17.6-27.8-37.2-14.6-19.6-26.7-35.6-27-35.7-.3 0-3.6 5.8-7.4 12.8-10.5 19.5-21.9 39.2-22.3 38.8-.2-.2 3.2-11.3 7.6-24.7 4.4-13.4 7.9-24.4 7.8-24.5-.2-.2-87.7 149.5-92.1 157.5-2.4 4.3 2.7-2.7 21.4-29.4 11.1-16 20.7-29.5 21.2-30 .9-1-1.2 3.5-19.6 42.4-5.8 12.4-10.4 22.6-10.2 22.8.1.2 18 .2 39.7.1l39.4-.3-7.1-4.2c-11.4-6.8-17.9-12.6-20.9-18.7-2.3-4.8-2.5-5.8-1.6-9.4 3.7-13.4 31-24.6 92.6-37.7 9.4-2 23.1-5 30.5-6.6 32.7-7.2 46.3-13 43.3-18.3-.4-.8-6.4-5.4-13.3-10.2-6.9-4.8-28-20.3-47-34.4-19-14.1-40.1-29.6-46.9-34.3l-12.3-8.7H498.1l-46.3 39.2z"/><path d="M669 454.6c-9.1 8.1-18.1 16-20 17.7l-3.4 3 2.4 1.6c6.9 4.5 10.7 8 12.3 11.3 1.7 3.5 1.7 3.9.2 7.2-3 6.2-11.5 11.3-37.5 22.6-24.8 10.7-33.6 16.3-36.1 22.9-3.9 10.1 15.2 22.2 53.9 34l13.3 4.1h108.5c59.6 0 108.4-.3 108.3-.8 0-.4-12.9-12.7-28.6-27.5L813.7 524h-15.2l12.5 12.7c6.9 7 11.6 12 10.5 11.1-1.1-.8-29-25.5-61.9-54.7L699.7 440h-7.1l-7.1.1-16.5 14.5zm88.7 46.5c33.4 29.8 62.2 55.5 63.8 57.2 3.6 3.6 1.7 2.2-39-29.6-16.5-12.9-30.2-23.3-30.3-23.2-.2.2 6.4 11.8 14.7 25.7 8.3 13.9 14 23.9 12.6 22.3-1.4-1.7-18.6-23.3-38.2-48.1-19.7-24.8-35.9-45-36.1-44.9-.1.1.7 5 1.8 11 1.2 5.9 2 10.9 1.8 11-.2.2-4.2-6-9-13.8-4.8-7.8-9.3-15-10-16-1.4-1.9-2.9-1-24.3 14.1-6.7 4.7-4.8 2.8 9.2-9.4 11.7-10.2 11.9-10.3 17-10.4h5.2l60.8 54.1zM0 593.5v5.5h1075v-11H0v5.5zM545.2 618c-16.7 5.5-26.7 22.6-24.2 41.3 3.2 23.2 28.6 36.5 52.7 27.5 7.5-2.8 15.3-10.2 18.9-18 2.5-5.6 2.9-7.4 2.9-16.3 0-8.3-.4-10.8-2.3-14.9-3.8-8.3-8.5-13.2-16.7-17.2-6.4-3.2-8.5-3.7-16.2-4-6.9-.3-10.1 0-15.1 1.6zm23.8 7.8c5.3 5.9 6.5 11.2 6.5 28.2 0 14.1-.1 14.7-3 20.5-3.6 7-6.7 9.5-12.7 10.2-11.2 1.3-18.1-8.4-19.5-27.2-1.1-15.3 3.2-30.3 9.9-34.5 2.6-1.7 4.5-2 9.2-1.7 5.5.3 6.2.7 9.6 4.5zM846.7 617c-17.9 4.5-28.7 20.1-27.5 39.4.6 9.7 4 16.8 11.3 23.5 18.5 16.9 50.2 11.2 60.3-10.8 3.8-8.2 4.3-22.1 1.1-30.6-3.1-8.2-11.2-16.3-19.4-19.4-6.7-2.6-19.7-3.6-25.8-2.1zm17.9 6.1c6.9 4.2 11.3 19.5 10 35-1.5 18.5-8.3 27.9-19.4 26.6-6-.7-9.1-3.2-12.7-10.2-2.7-5.4-3-6.9-3.3-18.8-.4-10-.1-14.3 1.3-19.2 1.7-6.5 6.2-13 9.9-14.5 3.9-1.6 10.7-1.1 14.2 1.1zM931 619.2c-.6 1.3-6.2 14.9-12.5 30.2-7.1 17.2-12.5 29-14.1 30.7-1.4 1.5-4.1 3-6 3.4-2.5.4-3.4 1.1-3.4 2.5 0 1.9.8 2 14.5 2 13.5 0 14.5-.1 14.5-1.9 0-1.4-1-2.1-3.7-2.6-7-1.3-7.6-3.2-4.2-13.3l2.1-6.2H942.5l3.5 8.6c3.8 9.5 3.7 9.8-3.2 10.9-2.9.5-3.8 1.2-3.8 2.6 0 1.8 1 1.9 19 1.9 17.8 0 19-.1 19-1.8 0-1.3-1.2-2.2-4-3.1-2.2-.6-4.6-2.2-5.4-3.4-.8-1.2-5.9-13.5-11.4-27.2-5.5-13.8-11-27.4-12.3-30.3l-2.2-5.2h-4.9c-4.1 0-5 .4-5.8 2.2zm4.4 27.3c2.5 6.3 4.6 12 4.6 12.5 0 .6-3.9 1-9.5 1-5.9 0-9.5-.4-9.5-1 0-.9 2.5-7.5 8.1-21.8.5-1.2 1-2.2 1.3-2.2.2 0 2.5 5.2 5 11.5zM22 619.7c0 1.3 1.5 2.3 4.8 3.3l4.7 1.5.3 27.9c.1 18.7-.1 28.3-.8 29.2-.6.7-2.9 1.5-5.1 1.9-2.9.5-3.9 1.1-3.9 2.6 0 1.8 1.2 1.9 31.9 1.9h31.9l.6-3.8c.3-2 .7-7.1.8-11.2.4-9.6-1.4-10.5-5.5-2.7-1.5 2.9-4 6.9-5.6 8.8-2.9 3.4-2.9 3.4-12.8 3.7-8.3.3-10.3.1-11.6-1.3-1.5-1.5-1.7-4.9-1.7-29.6V624l2.6-1c1.4-.6 3.6-1 5-1 1.7 0 2.4-.5 2.4-2 0-1.9-.7-2-19-2-17.4 0-19 .1-19 1.7zM90.2 619.7c.2.9 1.7 2.1 3.3 2.6 6.5 2.1 6.4 1.7 6.7 27.1l.3 23.3 3 4.8c3.9 6.2 10.6 10 20.3 11.5 13.8 2.2 25.3-1.8 31.7-10.9l3-4.3.6-22.4c.5-20.5.7-22.7 2.6-25.2 4-5.4 14.2-5.8 20.8-.8 2.7 2.1 19.7 25.4 21.1 29 .3.8-3.8 6.3-10.6 14-9.5 10.8-11.7 12.8-16 14.3-3.4 1.2-5 2.3-5 3.5 0 1.6 1.3 1.8 13.5 1.8 12.6 0 13.5-.1 13.5-1.9 0-1.3-.9-2.1-2.9-2.6-4.9-1.1-5.5-2.7-2.5-7.1 3.4-5 12.7-16.3 13.5-16.3 1.3-.2 13 19 12.7 20.7-.2 1.1-1.8 2-4.6 2.6-3 .7-4.2 1.5-4.2 2.8 0 1.7 1.4 1.8 21 1.8 20.2 0 21-.1 21-2 0-1.4-.9-2.1-3.6-2.6-1.9-.3-4.9-1.8-6.5-3.1-2.8-2.4-22.9-30.3-22.9-31.8 0-.4 4.5-5.8 10-12 9.3-10.4 14.4-14.5 18.4-14.5.9 0 1.6-.8 1.6-2 0-1.9-.7-2-13.5-2s-13.5.1-13.5 2c0 1.4.7 2 2.3 2 1.3 0 3.1.6 4.1 1.3 1.7 1.2 1.7 1.6.3 4.3-.9 1.6-4.1 6-7.2 9.7l-5.7 6.9-3.2-4.9c-1.8-2.6-4.5-7-6.1-9.7-2.7-4.7-2.8-4.9-1-6.2 1-.8 3.4-1.4 5.2-1.4 2.6 0 3.3-.4 3.3-2 0-2-.7-2-37-2-35.5 0-37 .1-37 1.9 0 1.3 1.2 2.2 4.5 3.1 7.4 2.1 8 3.9 8 27 0 18.9-.1 19.6-2.5 24-4.7 8.4-15.8 11.4-25 6.7-7.9-4-8.4-5.8-8.8-31.4-.3-14.9 0-22.8.7-24.2.8-1.3 2.6-2.3 5.1-2.7 3-.5 4-1.1 4-2.5 0-1.8-1.1-1.9-18.6-1.9-16.8 0-18.5.2-18.2 1.7zM256 619.9c0 1.3 1 2.1 3.4 2.5 1.9.4 3.9 1.2 4.4 1.9.6.7 1.2 10.5 1.4 23.7.4 25.6 1.1 28.5 8.1 34.5 5.2 4.5 12.5 6.8 21.7 6.9 10.2.1 16.1-1.8 22-7.1 7.2-6.5 8-9.7 8-32.5 0-23 .6-25.2 7.4-27 3.3-.9 4.6-1.7 4.6-3 0-1.7-1.2-1.8-15-1.8-13.9 0-15 .1-15 1.8 0 1.3 1.2 2.2 3.8 3 7.4 2.2 7.7 3 8 24.5.4 22.4-.3 26.1-5.9 31.1-4.2 3.9-8.7 5.1-15.6 4.3-4.9-.5-8.5-2.7-11.7-7.1-2-2.6-2.1-4.3-2.4-26.4-.3-23.3-.3-23.7 1.8-25.4 1.2-1 3.3-1.8 4.6-1.8 1.7 0 2.4-.6 2.4-2 0-1.9-.7-2-18-2-17 0-18 .1-18 1.9zM341 619.8c0 1.4.9 2.1 3.2 2.6 6.9 1.4 6.8 1 6.8 30.7 0 29.6.1 29.1-6.5 30.3-2.6.5-3.5 1.2-3.5 2.6 0 1.9.8 2 18.5 2 17.6 0 18.5-.1 18.5-1.9 0-1.4-1-2.1-3.2-2.6-6.3-1.4-6.8-2.5-6.8-15.7 0-9.6.3-11.8 1.4-11.8 1.6 0 11.4 12.2 19.5 24.2l5.2 7.8h13.4c12.6 0 13.5-.1 13.5-1.9 0-1.3-.9-2.1-3.3-2.5-2.1-.4-4.9-2.3-7.9-5.4-5.2-5.4-20.2-24.2-19.6-24.6.1-.2 2.3-1.4 4.8-2.6 8.3-4.1 11.1-8.1 11.2-16.1 0-6.6-2.5-10.7-8.7-13.9-4.9-2.5-5.4-2.5-30.7-2.8-25-.3-25.8-.3-25.8 1.6zm36.5 3.2c2.4.5 5.1 2.1 6.8 4 2.3 2.5 2.7 3.9 2.7 8.6 0 10.3-4 14.9-14.1 16.1l-4.9.6V622h2.8c1.5 0 4.5.5 6.7 1zM415 619.9c0 1.3 1 2 3.2 2.5 4.7.9 9.4 6.6 19.1 23.3l8.7 15.1v9.5c0 10.9-.7 12.3-7.1 13.3-2.9.5-3.9 1.1-3.9 2.5 0 1.8 1.1 1.9 19.5 1.9s19.5-.1 19.5-1.9c0-1.4-1.2-2.2-4.5-3-2.5-.6-4.9-1.9-5.5-3-1.4-2.7-1.2-16.9.4-21.1 1.7-5 16.3-27.6 20.7-32.2 2-2.1 4.9-4.1 6.7-4.4 2.2-.5 3.2-1.2 3.2-2.5 0-1.8-1-1.9-13-1.9-12.3 0-13 .1-13 2 0 1.4.7 2 2.1 2 3 0 5.9 1.8 5.9 3.8 0 2.2-15.2 27.2-16.2 26.6-1-.6-14.4-24.4-15.2-27.1-.7-2.3.2-2.8 6.4-3.5 1.4-.2 2.6-1 2.8-2.1.3-1.6-1.1-1.7-19.7-1.7-19 0-20.1.1-20.1 1.9zM603 619.7c0 1.3 1.5 2.3 4.8 3.3l4.7 1.5.3 27.9c.1 18.7-.1 28.3-.8 29.2-.6.7-2.9 1.5-5.1 1.9-2.9.5-3.9 1.1-3.9 2.6 0 1.8 1 1.9 19 1.9 17.7 0 19-.1 19-1.8 0-1.3-1.3-2.3-4.7-3.3l-4.8-1.4-.3-13.8-.3-13.7h4.4c6.9 0 10.5 1.7 12.7 6.1 1.1 2.1 2 4.5 2 5.4 0 .8.9 1.5 2 1.5 1.9 0 2-.7 2-14.5s-.1-14.5-2-14.5c-1.1 0-2 .5-2 1.1 0 .6-.8 2.7-1.7 4.6-2 4.2-6.2 6.3-12.8 6.3H631v-28h7.3c13.4.1 17.8 2.4 22.2 11.7 1.1 2.2 2.2 3.3 3.3 3.1 1.4-.3 1.7-1.9 2-9.6l.3-9.2h-31.6c-29.3 0-31.5.1-31.5 1.7zM671 619.9c0 1.3 1 2 3.2 2.5 6.9 1.4 6.8 1 6.8 30.7 0 29.6.1 29.2-6.5 30.5-2.5.4-3.5 1.1-3.5 2.5 0 1.8 1 1.9 18.5 1.9 17.3 0 18.5-.1 18.5-1.8 0-1.3-1.2-2.2-4-3.1-2.2-.6-4.4-2-5-3.1-.5-1-1-7.4-1-14.1v-12.1l6.5.4c7.5.5 10.4 2.5 12.5 8.8.9 2.7 1.9 4 3.2 4 1.7 0 1.8-1.1 1.8-14.5 0-13.6-.1-14.5-1.9-14.5-1.3 0-2.3 1.1-3.1 3.4-1.9 5.7-5.2 8-12.6 8.4l-6.5.4.3-13.8.3-13.9 10.3.1c9.9.1 10.4.2 13.3 3 1.7 1.6 4.2 4.8 5.6 7.1 4.1 7 5.3 5.8 5.3-5.2V618h-31c-29.6 0-31 .1-31 1.9zM738 619.9c0 1.5 1 2.1 4 2.6 6.9 1.2 7 1.6 7 30.5s-.1 29.3-7 30.5c-3.1.5-4 1.1-4 2.6 0 1.9.8 1.9 18.7 1.7 16.6-.3 18.8-.5 19.1-2 .2-1.1-.7-1.8-3-2.3-6.3-1.4-6.8-2.5-6.8-15.7 0-9.4.3-11.8 1.4-11.8 1.4 0 12.7 14.2 20.5 25.8l4.2 6.3 13.2-.3c11.2-.3 13.2-.5 13.5-1.9.2-1.2-.7-1.8-3.3-2.3-2.3-.5-5-2.1-7.3-4.6-4.7-4.7-20.6-25-20.1-25.4.2-.2 2.7-1.5 5.6-3 6.8-3.4 9.6-7.4 10.1-14.7.7-9.3-3.1-13.7-14.3-16.8-2.4-.6-13.7-1.1-27.7-1.1-22.8 0-23.8.1-23.8 1.9zm38.5 3.5c7.6 2.3 10.9 12.3 6.7 20.5-2.4 4.8-5.9 7-12 7.8l-5.2.6V622l3.3.1c1.7 0 5 .6 7.2 1.3zM978 620c0 1.4.7 2 2.1 2 2.3 0 6 1.8 7.1 3.4.4.6.8 13.3.8 28.2 0 29.9.2 29-6.4 30.1-2.6.4-3.6 1.1-3.6 2.4 0 1.8 1.1 1.9 19.8 1.9 27.5 0 39-2.8 47.9-11.7 6.6-6.6 8.7-12.2 8.8-23.3 0-8.4-.3-10.1-2.8-15.2-3-6.2-8.4-11.6-14.6-14.8-8.3-4.2-14.3-5-37.3-5-21.1 0-21.8.1-21.8 2zm43.9 4.5c4.6 2.3 7.9 6.1 10.4 11.5 2.5 5.7 3.5 22 1.8 30.2-1.5 6.9-6 13.4-10.6 15.4-5 2.1-12.8 1.8-15.6-.5l-2.4-1.9-.3-27.2c-.2-15-.1-27.9.3-28.8.7-2 11.7-1.2 16.4 1.3zM741.7 703.1c-4.8 1.1-10.7 4.1-12.9 6.6-4.9 5.4-6 14.1-2.7 21 2.7 5.7 7.2 8.6 18.9 12.4 15.1 5 19 9.2 15.3 16.7-2.2 4.6-5.3 6.2-11.9 6.2-4 0-6-.6-9.4-2.9-4.3-2.9-12-13-12-15.7 0-.8-1-1.4-2.6-1.4h-2.7l.7 7.7c.3 4.2.6 9.3.6 11.5 0 4.1 1.9 5.1 4.9 2.4 1.4-1.2 2.5-1.1 8.6 1 23 7.8 44.5-5.1 39.5-23.7-2-7.2-6.9-11-20.1-15.5-12.9-4.3-16.9-7.3-16.9-12.4 0-6.6 5.1-10.6 12.7-9.7 6.1.7 10.6 4.5 14.4 12.2 2.2 4.5 3.7 6.5 5 6.5 1.7 0 1.9-.9 1.9-11 0-10.9 0-11-2.4-11-1.3 0-2.9.7-3.6 1.5-1 1.2-1.6 1.3-3.9.1-3-1.6-12.2-3.6-15.4-3.5-1.2.1-3.9.5-6 1zM604 731.1c-12 29.3-14.2 33.1-19.9 34.2-1.8.4-3.1 1.3-3.1 2.2 0 1.3 2.1 1.5 13.5 1.5 11.3 0 13.5-.2 13.5-1.5 0-.8-1.2-1.7-2.7-2.1-8.1-1.7-8.4-2.5-5-11.9l2.2-6 11.3-.3 11.2-.3 1.9 4.3c3.2 7.7 4.5 11.7 3.8 12.4-.4.4-2.4 1-4.4 1.3-2.5.4-3.9 1.2-4.1 2.4-.3 1.6 1.1 1.7 17.3 1.7s17.6-.1 17.3-1.7c-.2-1-1.2-1.9-2.3-2.2-5.1-.9-6.3-3.1-18.1-32.7L624.6 703h-9.2L604 731.1zm14.9.7c2.3 5.6 4.1 10.5 4.1 10.7 0 .3-4 .5-9 .5-4.9 0-9-.3-9-.7 0-2 8.6-22.1 9.2-21.5.3.4 2.5 5.3 4.7 11zM301 705.8c0 1.5.9 2.1 3.5 2.6 6.5 1.3 6.5 1.1 6.5 28.5 0 22.7-.2 24.9-1.8 26.4-1 1-2.6 1.7-3.4 1.7-2.7 0-4.8 1.1-4.8 2.6 0 1.1 3.2 1.4 17.6 1.4 16 0 17.5-.1 17.2-1.7-.2-1-1.7-2-3.7-2.4-1.8-.4-3.7-1.3-4.2-2.1-.5-.7-.9-6.1-.9-12.1 0-8.6.3-10.7 1.4-10.7 1.5 0 13.4 15.2 19.1 24.2l3 4.8h86.2l.7-4.6c.3-2.6.6-7.1.6-10 0-7.1-1.8-7.1-5.9-.2-5.7 9.9-7.2 10.8-18.4 10.8-11.3 0-11.7-.5-11.7-15.1V738h5.8c7 0 9.7 1.7 11.3 7 .9 2.8 1.8 4 3.1 4 1.7 0 1.8-1.1 1.8-13.5s-.1-13.5-1.8-13.5c-1.3 0-2.2 1.2-3.1 4-1.6 5.3-4.3 7-11.3 7H402v-25h7.8c9.7 0 13.6 1.8 17.7 8.2 1.7 2.6 3.8 4.7 4.8 4.7 1.5.1 1.7-1 1.7-8.4V704h-29c-27.8 0-29 .1-29 1.9 0 1.4 1 2.1 3.5 2.5 6.3 1.2 6.5 2.3 6.5 28.7 0 28.2 0 28.2-9.2 28.2-4 0-6.4-.6-8.2-1.9-2.5-1.8-21.9-25.5-21.3-26 .1-.2 2.7-1.6 5.7-3.1 6.7-3.5 9.4-7.7 9.4-14.5 0-6.1-2.4-9.5-9-12.8-4.7-2.4-5.6-2.5-28.6-2.8-23.1-.3-23.8-.3-23.8 1.6zm38.7 4.7c8.9 5.8 5.4 22.1-5.2 24.5-8 1.9-7.5 2.7-7.5-13.1v-14.2l5.1.6c2.8.4 6.3 1.4 7.6 2.2zM442 705.9c0 1.3.9 2.1 3 2.6 1.6.4 4.1 2 5.5 3.7l2.5 3v22.2c0 25-.2 25.8-7 27.6-2.4.6-4 1.7-4 2.5 0 1.3 2.4 1.5 14 1.5 13.1 0 14-.1 14-1.9 0-1.3-1-2.1-3.4-2.5-6.7-1.3-7.1-2.4-7.4-25-.2-16.2 0-19.8 1-18.5 40.8 51.1 38.9 48.9 43 48.9h3.8v-24.8c.1-13.6.5-26.7.9-29.2 1-4.9 4-8 7.7-8 1.7 0 2.4-.6 2.4-2 0-1.9-.7-2-14.1-2-12.4 0-14 .2-13.7 1.6.2.9 2.3 2.4 4.8 3.3 6.3 2.3 7.1 5.3 6.8 24.2l-.3 14.8L484 726l-17.5-22h-12.2c-11.5 0-12.3.1-12.3 1.9zM520 713.5c0 8.5.2 9.5 1.8 9.5 1.1 0 2.2-1.2 3-3.3.7-1.9 2.7-5 4.5-7.1 2.7-3.1 4-3.8 8.5-4.3l5.2-.6v27.5c0 28.9-.1 29.8-4.6 29.8-3.3 0-5.4 1-5.4 2.6 0 1.1 3.4 1.4 18.6 1.4 16.8 0 18.5-.2 18.2-1.7-.2-1-2-2-4.8-2.7l-4.5-1.1-.3-27.9-.2-27.9 5.1.6c6.1.7 8.1 2.3 12.1 9.4 4.6 8.1 5.8 7.1 5.8-4.2V704h-63v9.5zM658 705.8c0 1.3 1.3 2.1 4.4 3 3.2.8 4.5 1.7 5 3.4.3 1.3.6 12.7.6 25.3 0 19.3-.3 23.4-1.6 25.3-.8 1.2-2.4 2.2-3.4 2.2-2.9 0-5 1.1-5 2.6 0 1.2 5 1.4 29.9 1.4h29.8l.7-5.3c1-8.8.7-15.7-.6-15.7-.7 0-2.6 2.5-4.3 5.5-1.6 3.1-4.2 6.8-5.8 8.3-2.5 2.4-3.8 2.7-10.8 3.1-6.1.2-8.5-.1-10.4-1.3L684 762v-25.3c0-13.8.4-25.8.9-26.5.4-.8 2.7-1.6 5-1.9 3.1-.4 4.1-1 4.1-2.4 0-1.8-1.1-1.9-18-1.9-16.6 0-18 .1-18 1.8zM0 735.5v5.5h292v-11H0v5.5zM788 735.5v5.5h287v-11H788v5.5z"/></svg>